<?xml version="1.0" encoding="utf-8"?>
<!-- Generator: Adobe Illustrator 15.0.0, SVG Export Plug-In . SVG Version: 6.00 Build 0)  -->
<!DOCTYPE svg PUBLIC "-//W3C//DTD SVG 1.1//EN" "http://www.w3.org/Graphics/SVG/1.1/DTD/svg11.dtd">
<svg version="1.1" id="Layer_1" xmlns="http://www.w3.org/2000/svg" xmlns:xlink="http://www.w3.org/1999/xlink" x="0px" y="0px"
	 width="721.186px" height="533.714px" viewBox="0 0 721.186 533.714" enable-background="new 0 0 721.186 533.714"
	 xml:space="preserve">
<g>
	<g>
		<path fill="#65B069" d="M110.711,461.732c0,0,30.656,22.131,55.057-32.236C165.768,429.496,110.432,425.915,110.711,461.732"/>
		<g>
			<path fill="#11110E" d="M167.227,509.587c0,1.766-25.678,3.198-57.35,3.198c-31.676,0-57.35-1.433-57.35-3.198
				c0-1.77,25.674-3.202,57.35-3.202C141.549,506.385,167.227,507.817,167.227,509.587"/>
			<path fill="#32663A" d="M108.49,382.489c0,0,37.098,0.036,43.604-46.57C152.095,335.919,99.491,336.727,108.49,382.489"/>
			<path fill="#32663A" d="M111.938,462.403c0,0-0.562-37.099-47.261-42.858C64.677,419.545,66.314,472.13,111.938,462.403"/>
			<path fill="#65B069" d="M112.22,509.198V316.247c0-1.487-1.202-2.692-2.692-2.692c-1.484,0-2.691,1.205-2.691,2.692v192.951
				C108.784,509.741,110.602,509.741,112.22,509.198"/>
			<path fill="#65B069" d="M109.527,335.761c0,0,5.096-36.746,52.152-36.746C161.68,299.015,153.612,350.999,109.527,335.761"/>
			<path fill="#65B069" d="M111.938,347.051c0,0-5.102-36.752-52.158-36.752C59.779,310.299,67.853,362.286,111.938,347.051"/>
			<path fill="#65B069" d="M112.469,379.693c0,0-12.052-35.089-58.236-26.066C54.232,353.627,72.123,403.107,112.469,379.693"/>
			<path fill="#65B069" d="M109.491,387.523c0,0,34.579,13.454,57.495-27.642C166.986,359.882,117.661,341.6,109.491,387.523"/>
			<path fill="#65B069" d="M108.82,420.698c0,0,27.445,26,58.844-24.658C167.664,396.04,113.285,385.163,108.82,420.698"/>
			<path fill="#65B069" d="M109.527,466.437c0,0-1.08-37.793-59.076-24.091C50.451,442.346,81.27,488.445,109.527,466.437"/>
			<path fill="#65B069" d="M112.316,418.789c0,0-0.151-37.814-58.467-25.529C53.85,393.26,83.527,440.094,112.316,418.789"/>
		</g>
	</g>
	<g>
		<path fill="#472A2B" d="M673.977,400.161c-10.396-26.955-28.025-43.14-41.188-52.048c9.182-11.571,15.813-27.349,15.813-48.867
			c0-59.132-41.855-79.031-60.953-79.031c-11.061,0-19.783,5.632-26.793,10.149c-2.38,1.542-5.781,3.731-7.813,4.509
			c-2.029-0.777-5.426-2.967-7.813-4.509c-7.01-4.518-15.731-10.149-26.792-10.149c-19.099,0-60.96,19.899-60.96,79.031
			c0,21.519,6.637,37.296,15.815,48.867c-13.158,8.911-30.792,25.093-41.181,52.048c-12.76,33.086-0.617,83.975,17.279,115.058
			c8.355,14.515,17.213,23.535,26.371,26.937c-0.559,1.449-0.912,3.107-0.837,5.054c0.259,6.861,5.485,10.187,7.224,11.292
			c4.337,2.766,8.824,4.195,13.348,4.362c3.518,8.806,13.753,21.697,25.309,21.852c1.358,2.104,3.234,4.478,5.82,7.18
			c8.18,8.535,15.58,12.869,22.007,12.869c1.483,0,2.944-0.254,4.345-0.685c1.408,0.431,2.866,0.685,4.356,0.685
			c6.422,0,13.827-4.327,21.999-12.869c2.591-2.702,4.469-5.076,5.824-7.18c11.556-0.154,21.793-13.043,25.314-21.852
			c4.52-0.167,9.008-1.597,13.367-4.375c1.719-1.093,6.945-4.424,7.202-11.279c0.073-1.931-0.276-3.569-0.822-5.015
			c9.197-3.37,18.083-12.403,26.474-26.976C674.59,484.132,686.733,433.247,673.977,400.161z"/>
		<g>
			<path fill="#A68462" d="M513.511,536.19c-2.593-2.057-5.239-4.35-7.935-6.907c-16.535,18.96-20.987,16.075-16.766,18.761
				c2.679,1.709,5.178,2.483,7.52,2.483c3.978,0,7.514-2.229,10.742-5.917C510.4,540.804,512.146,538.021,513.511,536.19z"/>
			<path fill="#A68462" d="M499.665,523.183c-25.134-27.398-32.257-61.83-32.629-90.787c-0.003-0.154,0.003-0.312,0.003-0.469
				c-0.025-2.053-0.02-4.087,0.016-6.078c0.017-0.672,0.059-1.314,0.074-1.979c0.046-1.468,0.087-2.942,0.158-4.372
				c0.108-2.085,0.25-4.131,0.414-6.126c2.418-29.684,16.695-48.088,24.164-55.813c-1.533-1.102-3.043-2.271-4.529-3.527
				c-12.021,6.614-32.459,21.546-43.658,50.593c-16.531,42.871,16.012,122.936,38.742,126.556c1.598,0.254,3.078,0.379,4.449,0.379
				C493.326,531.558,497.349,528.705,499.665,523.183z"/>
			<path fill="#A68462" d="M517.305,539.065c-0.572,0.655-1.191,1.381-1.859,2.223c-4.971,6.28-9.343,11.354-8.89,15.719
				c0.356,3.45,8.89,15.33,14.46,15.33c1.493,0,2.766-0.848,3.619-2.934c4.633-11.32,6.072-17.919,7.188-21.678
				C527.411,545.638,522.512,542.83,517.305,539.065z"/>
			<path fill="#A68462" d="M600.446,529.348c-2.692,2.557-5.349,4.848-7.944,6.9c1.359,1.831,3.106,4.606,6.39,8.362
				c3.231,3.688,6.766,5.917,10.743,5.917c2.345,0,4.844-0.774,7.523-2.483C621.373,545.361,616.936,548.233,600.446,529.348z"/>
			<path fill="#A68462" d="M588.705,539.12c-5.211,3.765-10.119,6.563-14.547,8.654c1.112,3.759,2.555,10.354,7.174,21.629
				c0.852,2.086,2.131,2.934,3.621,2.934c5.57,0,14.103-11.88,14.455-15.33c0.457-4.365-3.918-9.438-8.885-15.719
				C589.875,540.469,589.271,539.756,588.705,539.12z"/>
			<path fill="#A68462" d="M662.408,404.623c-11.201-29.047-31.633-43.979-43.654-50.593c-1.484,1.256-2.995,2.426-4.532,3.527
				c7.472,7.726,21.746,26.13,24.171,55.813c0.164,1.995,0.302,4.041,0.409,6.126c0.079,1.487,0.12,3.023,0.169,4.553
				c0.01,0.601,0.048,1.182,0.058,1.792c0.045,2.078,0.052,4.202,0.026,6.348c0,0.064,0,0.132,0,0.199
				c-0.377,28.941-7.486,63.359-32.602,90.753c-0.009,0.013-0.021,0.025-0.031,0.041c2.316,5.522,6.339,8.375,12.799,8.375
				c1.368,0,2.852-0.125,4.449-0.379C646.395,527.559,678.939,447.494,662.408,404.623z"/>
			<path fill="#A68462" d="M549.355,575.244c0.035-7.276,0.08-15.298,0.013-21.825c-2.991-0.479-7.389-1.504-12.767-3.624
				c-2.184,6.739-6.477,17.251-6.804,24.774c-0.173,4.038,13.749,17.801,18.836,17.801c0.313,0,0.584-0.055,0.824-0.139
				c-0.1-0.53-0.153-1.082-0.153-1.647C549.305,586.94,549.326,579.632,549.355,575.244z"/>
			<path fill="#A68462" d="M556.596,553.432c-0.063,6.527-0.019,14.543,0.02,21.813c0.023,4.388,0.045,11.696,0.045,15.34
				c0,0.565-0.051,1.117-0.149,1.647c0.239,0.084,0.51,0.139,0.824,0.139c5.092,0,19.012-13.763,18.835-17.801
				c-0.331-7.514-4.607-17.999-6.798-24.739C564.011,551.932,559.616,552.949,556.596,553.432z"/>
			<path fill="#A68462" d="M606.811,512.373c0.041-0.064,0.09-0.126,0.139-0.177c0.226-0.296,0.449-0.585,0.678-0.871
				c4.115-5.377,7.639-11.021,10.619-16.881c0-0.004,0.004-0.01,0.004-0.01c0.094-0.184,0.18-0.363,0.273-0.546
				c1.169-2.339,2.262-4.7,3.267-7.094c0.244-0.575,0.498-1.144,0.729-1.719c0.003-0.009,0.006-0.016,0.013-0.028
				c1.294-3.229,2.438-6.509,3.456-9.824c0.007-0.022,0.014-0.038,0.023-0.061c0.219-0.742,0.43-1.484,0.646-2.224
				c0.421-1.461,0.822-2.923,1.192-4.397c0.006-0.007,0.006-0.02,0.009-0.029c0.126-0.511,0.241-1.031,0.363-1.538
				c0.405-1.726,0.8-3.447,1.144-5.182v-0.007c0.067-0.344,0.125-0.69,0.193-1.037c0.359-1.902,0.7-3.813,0.985-5.731
				c0-0.013,0-0.02,0-0.025c0.062-0.393,0.106-0.787,0.161-1.18c0.713-5.008,1.169-10.035,1.413-15.069
				c0.02-0.411,0.045-0.819,0.059-1.23c0-0.029,0.006-0.061,0.006-0.087c0.042-1.002,0.09-2.005,0.119-3c0-0.007,0-0.013,0-0.02
				c0.009-0.453,0.006-0.902,0.009-1.358c0.068-4.119,0.014-8.234-0.18-12.32c0-0.01,0-0.013,0-0.02
				c-0.109-2.271-0.257-4.536-0.437-6.791c-2.378-29.044-16.933-46.375-23.22-52.601c-10.143,6.017-20.373,9.091-27.223,10.617
				c-10.819,2.402-21.449,2.763-26.814,2.763c-0.546,0-1.011-0.007-1.395-0.013c-0.379,0.006-0.848,0.013-1.391,0.013
				c-5.368,0-15.995-0.36-26.814-2.763c-6.85-1.526-17.084-4.601-27.229-10.617c-6.287,6.229-20.843,23.563-23.214,52.601
				c-0.462,5.683-0.671,11.443-0.633,17.219c0,1.096,0,2.188,0.028,3.283c0,0.007,0,0.01,0,0.017
				c0.074,3.315,0.271,6.64,0.541,9.955c0,0.025,0,0.048,0.006,0.07c0.1,1.234,0.202,2.474,0.331,3.704
				c0,0.01,0.003,0.013,0.003,0.017c0.112,1.082,0.255,2.152,0.389,3.231c0,0.003,0,0.007,0,0.013
				c0.116,0.944,0.248,1.889,0.383,2.837c0.195,1.353,0.41,2.701,0.643,4.051c0.003,0.003,0.003,0.01,0.003,0.016
				c0.118,0.701,0.254,1.397,0.389,2.098c0.292,1.581,0.61,3.158,0.96,4.729c0.254,1.124,0.514,2.242,0.794,3.36
				c0.007,0.01,0.007,0.022,0.007,0.028c0.285,1.125,0.578,2.246,0.893,3.364c0.299,1.085,0.62,2.171,0.954,3.254
				c0,0.006,0.008,0.022,0.008,0.035c0.642,2.085,1.341,4.16,2.093,6.219c0.033,0.091,0.064,0.19,0.1,0.286v0.004
				c0.414,1.124,0.829,2.239,1.272,3.354c0.007,0.007,0.007,0.013,0.013,0.022c0.231,0.578,0.488,1.156,0.736,1.729
				c0.943,2.248,1.963,4.472,3.051,6.666c0.161,0.308,0.309,0.623,0.467,0.935c0.003,0.003,0.01,0.013,0.012,0.016
				c0.785,1.542,1.601,3.071,2.458,4.581c0.306,0.508,0.595,1.021,0.899,1.532c0.01,0.02,0.025,0.042,0.035,0.062
				c0.637,1.069,1.247,2.143,1.918,3.196c0.004,0.003,0.004,0.003,0.007,0.007c0.183,0.289,0.379,0.564,0.575,0.848
				c3.691,5.67,7.938,11.1,12.869,16.19c20.235,20.868,37.99,25.196,44.897,26.096l1.548,0.173l1.55-0.173
				c6.905-0.899,24.661-5.228,44.896-26.096C602.134,518.12,604.529,515.271,606.811,512.373z"/>
			<path fill="#A68462" d="M526.184,365.881c10.463,2.326,20.9,2.615,25.469,2.615c0.556,0,1.022-0.003,1.391-0.01
				c0.369,0.007,0.839,0.01,1.395,0.01c4.562,0,15.002-0.289,25.465-2.615c13.945-3.103,56.309-16.011,56.309-66.635
				c0-50.623-34.614-66.634-48.563-66.634c-13.499,0-24.099,14.003-34.605,14.895c-10.504-0.892-21.103-14.895-34.604-14.895
				c-13.948,0-48.56,16.011-48.56,66.634C469.879,349.87,512.242,362.778,526.184,365.881z"/>
		</g>
		<g>
			<path fill="#CFAB7A" d="M581.22,257.019c-10.989,0-19.625,8.971-28.177,9.544c-8.555-0.573-17.177-9.544-28.176-9.544
				c-11.35,0-39.536,10.259-39.536,42.695s34.492,40.715,45.849,42.7c9.547,1.667,19.072,1.699,21.863,1.667
				c2.8,0.032,12.32,0,21.871-1.667c11.35-1.985,45.845-10.264,45.845-42.7S592.576,257.019,581.22,257.019z"/>
		</g>
		<g>
			<g>
				<defs>
					<path id="SVGID_1_" d="M526.184,365.881c10.463,2.326,20.9,2.615,25.469,2.615c0.556,0,1.022-0.003,1.391-0.01
						c0.369,0.007,0.839,0.01,1.395,0.01c4.562,0,15.002-0.289,25.465-2.615c13.945-3.103,56.309-16.011,56.309-66.635
						c0-50.623-34.614-66.634-48.563-66.634c-13.499,0-24.099,14.003-34.605,14.895c-10.504-0.892-21.103-14.895-34.604-14.895
						c-13.948,0-48.56,16.011-48.56,66.634C469.879,349.87,512.242,362.778,526.184,365.881z"/>
				</defs>
				<clipPath id="SVGID_2_">
					<use xlink:href="#SVGID_1_"  overflow="visible"/>
				</clipPath>
				<g clip-path="url(#SVGID_2_)">
					<path fill="#7E543A" d="M532.256,329.465c0,0,9.736,42.61,21.105,42.61c11.359,0,20.473-42.61,20.473-42.61H532.256z"/>
				</g>
			</g>
			<path fill="#472A2B" d="M553.043,308.677c-11.462,0-20.787,9.326-20.787,20.788c0,8.458,9.441,30.888,20.787,30.888
				c11.574,0,20.791-22.183,20.791-30.888C573.834,318.003,564.509,308.677,553.043,308.677z M553.043,351.441
				c-2.885,0-11.876-14.273-11.876-21.977c0-6.552,5.326-11.88,11.876-11.88c6.551,0,11.884,5.328,11.884,11.88
				C564.927,337.252,556.596,351.441,553.043,351.441z"/>
			<path fill="#DF7A1C" d="M553.043,315.802c-7.546,0-13.659,6.118-13.659,13.663c0,7.543,8.908,23.759,13.659,23.759
				c5.35,0,13.666-16.216,13.666-23.759C566.709,321.92,560.586,315.802,553.043,315.802z"/>
			<g>
				<defs>
					<path id="SVGID_3_" d="M539.384,329.465c0,7.543,8.908,23.759,13.659,23.759c5.35,0,13.666-16.216,13.666-23.759
						c0-7.545-6.123-13.663-13.666-13.663C545.497,315.802,539.384,321.92,539.384,329.465z"/>
				</defs>
				<clipPath id="SVGID_4_">
					<use xlink:href="#SVGID_3_"  overflow="visible"/>
				</clipPath>
				<path clip-path="url(#SVGID_4_)" fill="#B15C12" d="M539.384,329.465c0,0,9.127,18.709,14.028,18.709
					c4.9,0,13.367-20.044,13.367-20.044s-1.782,28.065-13.367,28.065C541.825,356.195,539.384,329.465,539.384,329.465z"/>
			</g>
		</g>
		<g>
			<path fill="#CFAB7A" d="M553.093,508.704c13.523-0.138,55.177-30.972,55.177-73.578c0-41.903-47.009-44.862-48.979-44.959H546.8
				c-1.971,0.097-48.981,3.056-48.981,44.959c0,42.606,41.655,73.44,55.177,73.578H553.093z"/>
		</g>
		<g>
			<defs>
				<path id="SVGID_5_" d="M507.072,544.61c-3.229,3.688-6.765,5.917-10.742,5.917c-2.342,0-4.841-0.774-7.52-2.483
					c-4.222-2.686,0.23,0.199,16.766-18.761c2.695,2.558,5.342,4.851,7.935,6.907C512.146,538.021,510.4,540.804,507.072,544.61z
					 M499.665,523.183c-25.134-27.398-32.257-61.83-32.629-90.787c-0.003-0.154,0.003-0.312,0.003-0.469
					c-0.025-2.053-0.02-4.087,0.016-6.078c0.017-0.672,0.059-1.314,0.074-1.979c0.046-1.468,0.087-2.942,0.158-4.372
					c0.108-2.085,0.25-4.131,0.414-6.126c2.418-29.684,16.695-48.088,24.164-55.813c-1.533-1.102-3.043-2.271-4.529-3.527
					c-12.021,6.614-32.459,21.546-43.658,50.593c-16.531,42.871,16.012,122.936,38.742,126.556c1.598,0.254,3.078,0.379,4.449,0.379
					C493.326,531.558,497.349,528.705,499.665,523.183z M517.305,539.065c-0.572,0.655-1.191,1.381-1.859,2.223
					c-4.971,6.28-9.343,11.354-8.89,15.719c0.356,3.45,8.89,15.33,14.46,15.33c1.493,0,2.766-0.848,3.619-2.934
					c4.633-11.32,6.072-17.919,7.188-21.678C527.411,545.638,522.512,542.83,517.305,539.065z M600.446,529.348
					c-2.692,2.557-5.349,4.848-7.944,6.9c1.359,1.831,3.106,4.606,6.39,8.362c3.231,3.688,6.766,5.917,10.743,5.917
					c2.345,0,4.844-0.774,7.523-2.483C621.373,545.361,616.936,548.233,600.446,529.348z M588.705,539.12
					c-5.211,3.765-10.119,6.563-14.547,8.654c1.112,3.759,2.555,10.354,7.174,21.629c0.852,2.086,2.131,2.934,3.621,2.934
					c5.57,0,14.103-11.88,14.455-15.33c0.457-4.365-3.918-9.438-8.885-15.719C589.875,540.469,589.271,539.756,588.705,539.12z
					 M662.408,404.623c-11.201-29.047-31.633-43.979-43.654-50.593c-1.484,1.256-2.995,2.426-4.532,3.527
					c7.472,7.726,21.746,26.13,24.171,55.813c0.164,1.995,0.302,4.041,0.409,6.126c0.079,1.487,0.12,3.023,0.169,4.553
					c0.01,0.601,0.048,1.182,0.058,1.792c0.045,2.078,0.052,4.202,0.026,6.348c0,0.064,0,0.132,0,0.199
					c-0.377,28.941-7.486,63.359-32.602,90.753c-0.009,0.013-0.021,0.025-0.031,0.041c2.316,5.522,6.339,8.375,12.799,8.375
					c1.368,0,2.852-0.125,4.449-0.379C646.395,527.559,678.939,447.494,662.408,404.623z M549.355,575.244
					c0.035-7.276,0.08-15.298,0.013-21.825c-2.991-0.479-7.389-1.504-12.767-3.624c-2.184,6.739-6.477,17.251-6.804,24.774
					c-0.173,4.038,13.749,17.801,18.836,17.801c0.313,0,0.584-0.055,0.824-0.139c-0.1-0.53-0.153-1.082-0.153-1.647
					C549.305,586.94,549.326,579.632,549.355,575.244z M556.596,553.432c-0.063,6.527-0.019,14.543,0.02,21.813
					c0.023,4.388,0.045,11.696,0.045,15.34c0,0.565-0.051,1.117-0.149,1.647c0.239,0.084,0.51,0.139,0.824,0.139
					c5.092,0,19.012-13.763,18.835-17.801c-0.331-7.514-4.607-17.999-6.798-24.739C564.011,551.932,559.616,552.949,556.596,553.432
					z M606.811,512.373c0.041-0.064,0.09-0.126,0.139-0.177c0.226-0.296,0.449-0.585,0.678-0.871
					c4.115-5.377,7.639-11.021,10.619-16.881c0-0.004,0.004-0.01,0.004-0.01c0.094-0.184,0.18-0.363,0.273-0.546
					c1.169-2.339,2.262-4.7,3.267-7.094c0.244-0.575,0.498-1.144,0.729-1.719c0.003-0.009,0.006-0.016,0.013-0.028
					c1.294-3.229,2.438-6.509,3.456-9.824c0.007-0.022,0.014-0.038,0.023-0.061c0.219-0.742,0.43-1.484,0.646-2.224
					c0.421-1.461,0.822-2.923,1.192-4.397c0.006-0.007,0.006-0.02,0.009-0.029c0.126-0.511,0.241-1.031,0.363-1.538
					c0.405-1.726,0.8-3.447,1.144-5.182v-0.007c0.067-0.344,0.125-0.69,0.193-1.037c0.359-1.902,0.7-3.813,0.985-5.731
					c0-0.013,0-0.02,0-0.025c0.062-0.393,0.106-0.787,0.161-1.18c0.713-5.008,1.169-10.035,1.413-15.069
					c0.02-0.411,0.045-0.819,0.059-1.23c0-0.029,0.006-0.061,0.006-0.087c0.042-1.002,0.09-2.005,0.119-3c0-0.007,0-0.013,0-0.02
					c0.009-0.453,0.006-0.902,0.009-1.358c0.068-4.119,0.014-8.234-0.18-12.32c0-0.01,0-0.013,0-0.02
					c-0.109-2.271-0.257-4.536-0.437-6.791c-2.378-29.044-16.933-46.375-23.22-52.601c-10.143,6.017-20.373,9.091-27.223,10.617
					c-10.819,2.402-21.449,2.763-26.814,2.763c-0.546,0-1.011-0.007-1.395-0.013c-0.379,0.006-0.848,0.013-1.391,0.013
					c-5.368,0-15.995-0.36-26.814-2.763c-6.85-1.526-17.084-4.601-27.229-10.617c-6.287,6.229-20.843,23.563-23.214,52.601
					c-0.462,5.683-0.671,11.443-0.633,17.219c0,1.096,0,2.188,0.028,3.283c0,0.007,0,0.01,0,0.017
					c0.074,3.315,0.271,6.64,0.541,9.955c0,0.025,0,0.048,0.006,0.07c0.1,1.234,0.202,2.474,0.331,3.704
					c0,0.01,0.003,0.013,0.003,0.017c0.112,1.082,0.255,2.152,0.389,3.231c0,0.003,0,0.007,0,0.013
					c0.116,0.944,0.248,1.889,0.383,2.837c0.195,1.353,0.41,2.701,0.643,4.051c0.003,0.003,0.003,0.01,0.003,0.016
					c0.118,0.701,0.254,1.397,0.389,2.098c0.292,1.581,0.61,3.158,0.96,4.729c0.254,1.124,0.514,2.242,0.794,3.36
					c0.007,0.01,0.007,0.022,0.007,0.028c0.285,1.125,0.578,2.246,0.893,3.364c0.299,1.085,0.62,2.171,0.954,3.254
					c0,0.006,0.008,0.022,0.008,0.035c0.642,2.085,1.341,4.16,2.093,6.219c0.033,0.091,0.064,0.19,0.1,0.286v0.004
					c0.414,1.124,0.829,2.239,1.272,3.354c0.007,0.007,0.007,0.013,0.013,0.022c0.231,0.578,0.488,1.156,0.736,1.729
					c0.943,2.248,1.963,4.472,3.051,6.666c0.161,0.308,0.309,0.623,0.467,0.935c0.003,0.003,0.01,0.013,0.012,0.016
					c0.785,1.542,1.601,3.071,2.458,4.581c0.306,0.508,0.595,1.021,0.899,1.532c0.01,0.02,0.025,0.042,0.035,0.062
					c0.637,1.069,1.247,2.143,1.918,3.196c0.004,0.003,0.004,0.003,0.007,0.007c0.183,0.289,0.379,0.564,0.575,0.848
					c3.691,5.67,7.938,11.1,12.869,16.19c20.235,20.868,37.99,25.196,44.897,26.096l1.548,0.173l1.55-0.173
					c6.905-0.899,24.661-5.228,44.896-26.096C602.134,518.12,604.529,515.271,606.811,512.373z M526.184,365.881
					c10.463,2.326,20.9,2.615,25.469,2.615c0.556,0,1.022-0.003,1.391-0.01c0.369,0.007,0.839,0.01,1.395,0.01
					c4.562,0,15.002-0.289,25.465-2.615c13.945-3.103,56.309-16.011,56.309-66.635c0-50.623-34.614-66.634-48.563-66.634
					c-13.499,0-24.099,14.003-34.605,14.895c-10.504-0.892-21.103-14.895-34.604-14.895c-13.948,0-48.56,16.011-48.56,66.634
					C469.879,349.87,512.242,362.778,526.184,365.881z"/>
			</defs>
			<clipPath id="SVGID_6_">
				<use xlink:href="#SVGID_5_"  overflow="visible"/>
			</clipPath>
			<g clip-path="url(#SVGID_6_)">
				<path fill="#7E543A" d="M480.085,475.163c0,0,31.435,62.213,71.924,62.213c46.288,0,73.979-62.152,73.979-62.152l0.402,8.943
					l-19.107,34.095l-23.767,19.114l-16.528,9.3c0,0-8.259,3.097-13.945,3.097c-5.686,0-21.176-2.58-29.441-10.328
					s-26.859-23.77-31.512-30.483c-4.648-6.711-12.396-30.99-12.396-30.99L480.085,475.163z"/>
			</g>
			<path clip-path="url(#SVGID_6_)" fill="#7E543A" d="M601.278,527.302l-11.815,7.748l-10.27,7.363l-26.15,9.352l-26.148-9.352
				l-10.268-7.363l-11.813-7.748l-4.651,7.362l0.649,0.324c0,0,3.093-0.521,7.228,2.063c4.131,2.586,3.62,7.749,3.62,7.749
				s5.938-0.257,12.134,2.843c6.2,3.097,7.94,7.167,7.94,7.167l2.522,0.777c0,0,3.871-1.358,8.323-0.389
				c4.459,0.967,7.17,5.037,7.17,5.037l2.904,0.151v0.042l0.389-0.023l0.389,0.023v-0.042l2.908-0.151c0,0,2.707-4.07,7.163-5.037
				c4.456-0.97,8.33,0.389,8.33,0.389l2.519-0.777c0,0,1.744-4.07,7.941-7.167c6.2-3.1,12.137-2.843,12.137-2.843
				s-0.514-5.163,3.62-7.749c4.128-2.583,7.228-2.063,7.228-2.063l0.649-0.324L601.278,527.302z"/>
			<g clip-path="url(#SVGID_6_)">
				<g>
					<path fill="#7E543A" d="M469.233,405.138c0,0-8.78,37.19,2.069,79.55c10.848,42.36,25.304,50.105,25.304,50.105l6.721-11.366
						c0,0-23.763-25.831-30.477-69.736C466.134,409.786,469.233,405.138,469.233,405.138z"/>
				</g>
				<g>
					<path fill="#7E543A" d="M636.856,405.138c0,0,8.783,37.19-2.071,79.55c-10.846,42.36-25.309,50.105-25.309,50.105
						l-6.716-11.366c0,0,23.768-25.831,30.476-69.736C639.957,409.786,636.856,405.138,636.856,405.138z"/>
				</g>
			</g>
			<path clip-path="url(#SVGID_6_)" fill="#7E543A" d="M566.102,372.338c7.309-2.068,13.891-0.404,13.891-0.404
				s4.395-3.727,20.058-2.179c15.665,1.549,24.538,7.749,24.538,7.749l-9.409-13.171l-6.862-6.2l-20.919,9.557l-34.743,4.334
				l-31.379-4.08l-24.017-10.585l-7.128,6.975l-8.883,12.653c0,0,9.387-6.457,25.047-8.009c15.664-1.548,19.027,2.956,19.027,2.956
				s6.58-2.179,13.889-0.112L566.102,372.338z"/>
			<g clip-path="url(#SVGID_6_)">
				<path fill="#7E543A" d="M469.365,363.292c0,0,0,5.172,2.833,8.012c2.85,2.84,10.599,2.583,10.599,2.583l12.65-17.049
					l-12.911-7.488L469.365,363.292z"/>
				<path fill="#7E543A" d="M626.65,375.692c0,0,5.166,1.294,8.009-1.549c2.84-2.84,1.806-7.488,1.806-7.488l0.521-5.943
					l-15.24-10.588l-9.813,6.457l3.873,9.3L626.65,375.692z"/>
			</g>
			<path clip-path="url(#SVGID_6_)" fill="#7E543A" d="M552.654,380.331"/>
		</g>
		<path fill="#EEB480" d="M559.813,335.108c1.538-3.27,3.928-7.9,4.475-8.813c0.549-0.913-3.595-6.138-3.826-5.097
			C555.553,343.149,555.646,343.991,559.813,335.108z"/>
		<g>
			<g>
				<g>
					<path fill="#B15C12" d="M504.856,569.581c-1.153,0-4.063-0.28-6.146-2.856c-2.223-2.75-2.708-7.125-1.445-13.011
						c3.145-14.681,14.935-19.641,15.436-19.847c0.254-0.103,0.527-0.153,0.797-0.153c0.392,0,0.79,0.108,1.131,0.327l11.07,7.028
						c0.658,0.418,1.034,1.167,0.97,1.941c-0.055,0.777-0.54,1.458-1.253,1.77c-2.73,1.208-9.934,5.445-10.447,10.495
						c-0.835,8.214-6.531,13.656-8.779,14.174c-0.366,0.083-0.842,0.132-1.33,0.132H504.856z"/>
					<path fill="#472A2B" d="M513.498,535.82l11.066,7.029c0,0-10.938,4.806-11.693,12.214c-0.752,7.408-5.879,12.037-7.153,12.329
						c-0.171,0.039-0.476,0.077-0.861,0.077c-2.409,0-8.067-1.471-5.528-13.315C502.273,540.398,513.498,535.82,513.498,535.82
						 M513.498,531.603c-0.54,0-1.083,0.104-1.594,0.312c-0.543,0.226-13.325,5.603-16.701,21.356
						c-1.403,6.541-0.774,11.511,1.866,14.781c1.87,2.31,4.706,3.636,7.787,3.636c0.655,0,1.278-0.063,1.806-0.183
						c3.665-0.842,9.541-7.495,10.404-16.011c0.383-3.753,6.361-7.537,9.201-8.783c1.423-0.626,2.391-1.985,2.506-3.54
						c0.119-1.555-0.63-3.046-1.943-3.881l-11.069-7.032C515.072,531.824,514.288,531.603,513.498,531.603L513.498,531.603z"/>
				</g>
				<g>
					<path fill="#B15C12" d="M518.969,574.268c-3.363,0-7.829-1.976-10.026-11.401c-3.97-17.058,10.63-24.967,10.775-25.044
						c0.314-0.164,0.648-0.244,0.985-0.244c0.396,0,0.794,0.112,1.145,0.334l10.363,6.682c0.609,0.392,0.977,1.073,0.967,1.799
						c-0.007,0.727-0.389,1.395-1.012,1.773c-0.073,0.045-7.82,4.957-6.277,9.782c2.318,7.267-0.354,14.431-3.223,15.535
						c-0.655,0.261-1.998,0.784-3.694,0.784H518.969z"/>
					<path fill="#472A2B" d="M520.703,539.686l10.367,6.679c0,0-9.291,5.657-7.189,12.227c2.094,6.563-0.543,12.378-1.97,12.924
						c-0.417,0.16-1.538,0.646-2.939,0.646c-2.563,0-6.077-1.612-7.977-9.77C507.346,546.718,520.703,539.686,520.703,539.686
						 M520.703,535.468c-0.671,0-1.35,0.16-1.966,0.484c-5.615,2.959-15.32,12.487-11.851,27.393
						c2.641,11.341,8.706,13.033,12.085,13.033c2.101,0,3.753-0.652,4.379-0.896l0.074-0.028c4.141-1.594,7.061-10.046,4.472-18.147
						c-0.804-2.512,3.356-6.098,5.377-7.344c1.235-0.758,1.992-2.107,2.005-3.553c0.017-1.445-0.706-2.805-1.925-3.589
						l-10.366-6.679C522.293,535.695,521.497,535.468,520.703,535.468L520.703,535.468z"/>
				</g>
				<g>
					<path fill="#B15C12" d="M532.573,577.001c-3.816,0-7.286-2.605-10.318-7.748c-6.971-11.828,3.881-25.883,4.347-26.474
						c0.411-0.524,1.027-0.807,1.659-0.807c0.313,0,0.634,0.067,0.927,0.215l9.287,4.578c0.61,0.296,1.036,0.87,1.15,1.539
						c0.112,0.665-0.1,1.346-0.572,1.827c-0.048,0.049-5.185,5.42-2.31,9.166c4.362,5.676,4.626,12.688,1.956,15.169
						C537.678,575.414,535.522,577.001,532.573,577.001L532.573,577.001z"/>
					<path fill="#472A2B" d="M528.261,544.08l9.286,4.577c0,0-6.521,6.653-2.475,11.922c4.049,5.271,3.73,10.916,2.191,12.339
						c-0.469,0.44-2.236,1.976-4.69,1.976c-2.377,0-5.394-1.438-8.5-6.711C517.754,557.457,528.261,544.08,528.261,544.08
						 M528.261,539.865c-1.265,0-2.495,0.565-3.317,1.609c-0.504,0.64-12.197,15.792-4.504,28.848
						c3.438,5.834,7.521,8.79,12.134,8.79c3.669,0,6.313-1.944,7.561-3.101c3.413-3.167,3.536-11.157-1.717-17.999
						c-1.702-2.22,2.117-6.38,2.152-6.422c0.935-0.971,1.353-2.332,1.118-3.656c-0.231-1.323-1.073-2.47-2.277-3.062l-9.287-4.577
						C529.527,540.007,528.893,539.865,528.261,539.865L528.261,539.865z"/>
				</g>
			</g>
			<g>
				<g>
					<path fill="#B15C12" d="M601.236,569.581c1.15,0,4.061-0.28,6.143-2.856c2.22-2.75,2.705-7.125,1.442-13.011
						c-3.145-14.681-14.935-19.641-15.433-19.847c-0.257-0.103-0.527-0.153-0.796-0.153c-0.396,0-0.788,0.108-1.128,0.327
						l-11.07,7.028c-0.662,0.418-1.035,1.167-0.977,1.941c0.058,0.777,0.543,1.458,1.257,1.77
						c2.727,1.208,9.933,5.445,10.446,10.495c0.832,8.214,6.527,13.656,8.775,14.174c0.373,0.083,0.846,0.132,1.337,0.132H601.236z"
						/>
					<path fill="#472A2B" d="M592.593,535.82c0,0,11.22,4.578,14.173,18.334c2.537,11.845-3.123,13.315-5.529,13.315
						c-0.389,0-0.693-0.038-0.867-0.077c-1.275-0.292-6.396-4.921-7.154-12.329c-0.754-7.408-11.693-12.214-11.693-12.214
						L592.593,535.82 M592.593,531.603c-0.791,0-1.575,0.222-2.266,0.655l-11.066,7.032c-1.314,0.835-2.063,2.326-1.947,3.881
						c0.122,1.555,1.083,2.914,2.513,3.54c2.833,1.246,8.818,5.03,9.197,8.783c0.863,8.516,6.739,15.169,10.408,16.011
						c0.526,0.119,1.146,0.183,1.805,0.183c3.074,0,5.918-1.326,7.784-3.636c2.641-3.271,3.267-8.24,1.863-14.781
						c-3.373-15.754-16.155-21.131-16.695-21.356C593.675,531.706,593.132,531.603,592.593,531.603L592.593,531.603z"/>
				</g>
				<g>
					<path fill="#B15C12" d="M587.121,574.268c3.36,0,7.832-1.976,10.026-11.401c3.974-17.058-10.63-24.967-10.778-25.044
						c-0.309-0.164-0.648-0.244-0.982-0.244c-0.398,0-0.794,0.112-1.145,0.334l-10.366,6.682c-0.61,0.392-0.974,1.073-0.964,1.799
						c0.01,0.727,0.39,1.395,1.01,1.773c0.076,0.045,7.822,4.957,6.279,9.782c-2.322,7.267,0.354,14.431,3.224,15.535
						C584.079,573.744,585.418,574.268,587.121,574.268L587.121,574.268z"/>
					<path fill="#472A2B" d="M585.387,539.686c0,0,13.354,7.032,9.708,22.705c-1.901,8.157-5.41,9.77-7.974,9.77
						c-1.406,0-2.525-0.485-2.942-0.646c-1.423-0.546-4.067-6.361-1.97-12.924c2.098-6.569-7.189-12.227-7.189-12.227
						L585.387,539.686 M585.387,535.468c-0.797,0-1.594,0.228-2.281,0.674l-10.369,6.679c-1.219,0.784-1.941,2.144-1.928,3.589
						c0.013,1.445,0.773,2.795,2.004,3.553c2.021,1.246,6.185,4.832,5.381,7.344c-2.589,8.102,0.328,16.554,4.469,18.147
						l0.077,0.028c0.624,0.244,2.28,0.896,4.382,0.896c3.377,0,9.441-1.692,12.082-13.033c3.47-14.905-6.235-24.434-11.851-27.393
						C586.736,535.628,586.061,535.468,585.387,535.468L585.387,535.468z"/>
				</g>
				<g>
					<path fill="#B15C12" d="M573.517,577.001c3.816,0,7.283-2.605,10.315-7.748c6.974-11.828-3.878-25.883-4.34-26.474
						c-0.412-0.524-1.029-0.807-1.662-0.807c-0.314,0-0.633,0.067-0.932,0.215l-9.283,4.578c-0.61,0.296-1.037,0.87-1.146,1.539
						c-0.116,0.665,0.096,1.346,0.568,1.827c0.051,0.049,5.182,5.42,2.307,9.166c-4.356,5.676-4.623,12.688-1.953,15.169
						C568.412,575.414,570.567,577.001,573.517,577.001L573.517,577.001z"/>
					<path fill="#472A2B" d="M577.834,544.08c0,0,10.502,13.377,4.183,24.103c-3.106,5.272-6.126,6.711-8.5,6.711
						c-2.454,0-4.225-1.535-4.694-1.976c-1.535-1.423-1.854-7.067,2.195-12.339c4.044-5.269-2.475-11.922-2.475-11.922
						L577.834,544.08 M577.828,539.865c-0.631,0-1.266,0.142-1.863,0.431l-9.281,4.577c-1.208,0.592-2.05,1.738-2.284,3.062
						c-0.231,1.324,0.187,2.686,1.121,3.656c0.035,0.042,3.854,4.202,2.152,6.422c-5.255,6.842-5.134,14.832-1.719,17.999
						c1.25,1.156,3.894,3.101,7.563,3.101c4.617,0,8.699-2.956,12.134-8.79c7.693-13.056-4-28.208-4.504-28.848
						C580.326,540.431,579.09,539.865,577.828,539.865L577.828,539.865z"/>
				</g>
			</g>
		</g>
		<g>
			<g>
				<path fill="#FFFFFF" d="M547.993,290.96c0,16.625-13.479,30.104-30.104,30.104c-16.621,0-30.1-13.479-30.1-30.104
					c0-16.623,13.479-30.1,30.1-30.1C534.514,260.86,547.993,274.337,547.993,290.96z"/>
				<path fill="#472A2B" d="M517.889,324.77c-18.641,0-33.808-15.164-33.808-33.81c0-18.642,15.167-33.809,33.808-33.809
					c18.643,0,33.814,15.167,33.814,33.809C551.703,309.605,536.531,324.77,517.889,324.77z M517.889,264.571
					c-14.549,0-26.39,11.838-26.39,26.389c0,14.553,11.841,26.391,26.39,26.391c14.553,0,26.391-11.838,26.391-26.391
					C544.279,276.409,532.441,264.571,517.889,264.571z"/>
			</g>
			<g>
				<path fill="#FFFFFF" d="M618.3,290.96c0,16.625-13.481,30.104-30.103,30.104c-16.625,0-30.101-13.479-30.101-30.104
					c0-16.623,13.476-30.1,30.101-30.1C604.818,260.86,618.3,274.337,618.3,290.96z"/>
				<path fill="#472A2B" d="M588.197,324.77c-18.643,0-33.811-15.164-33.811-33.81c0-18.642,15.168-33.809,33.811-33.809
					s33.812,15.167,33.812,33.809C622.009,309.605,606.84,324.77,588.197,324.77z M588.197,264.571
					c-14.553,0-26.391,11.838-26.391,26.389c0,14.553,11.838,26.391,26.391,26.391s26.391-11.838,26.391-26.391
					C614.588,276.409,602.75,264.571,588.197,264.571z"/>
			</g>
		</g>
		<path fill="#342209" d="M531.553,307.357c0,5.212-4.224,9.438-9.438,9.438c-5.211,0-9.435-4.227-9.435-9.438
			s4.224-9.437,9.435-9.437C527.329,297.921,531.553,302.146,531.553,307.357z"/>
		<path fill="#342209" d="M602.712,307.191c0,5.212-4.228,9.438-9.438,9.438c-5.215,0-9.436-4.227-9.436-9.438
			s4.221-9.437,9.436-9.437C598.484,297.755,602.712,301.979,602.712,307.191z"/>
	</g>
	<g>
		<polygon fill="#C6BDC5" points="713.998,492.622 504.222,535.867 504.222,483.499 713.998,448.032 		"/>
		<line fill="#EAD18C" x1="422.838" y1="502.29" x2="332.635" y2="504.023"/>
		<g>
			<defs>
				<polyline id="SVGID_7_" points="332.635,504.023 395.17,502.823 361.881,472.19 				"/>
			</defs>
			<clipPath id="SVGID_8_">
				<use xlink:href="#SVGID_7_"  overflow="visible"/>
			</clipPath>
			<defs>
				<filter id="Adobe_OpacityMaskFilter" filterUnits="userSpaceOnUse" x="332.635" y="504.023" width="86.902" height="0">
					<feColorMatrix  type="matrix" values="1 0 0 0 0  0 1 0 0 0  0 0 1 0 0  0 0 0 1 0"/>
				</filter>
			</defs>
			<mask maskUnits="userSpaceOnUse" x="332.635" y="504.023" width="86.902" height="0" id="SVGID_9_">
				<g filter="url(#Adobe_OpacityMaskFilter)">
					
						<linearGradient id="SVGID_10_" gradientUnits="userSpaceOnUse" x1="105.0288" y1="542.8496" x2="109.0229" y2="542.8496" gradientTransform="matrix(21.7576 0 0 -21.7576 -1952.5337 12253.5645)">
						<stop  offset="0" style="stop-color:#000000"/>
						<stop  offset="1" style="stop-color:#FFFFFF"/>
					</linearGradient>
					<rect x="332.635" y="380.903" clip-path="url(#SVGID_8_)" fill="url(#SVGID_10_)" width="86.902" height="123.119"/>
				</g>
			</mask>
			
				<linearGradient id="SVGID_11_" gradientUnits="userSpaceOnUse" x1="105.0298" y1="540.0205" x2="109.0239" y2="540.0205" gradientTransform="matrix(21.7576 0 0 -21.7576 -1952.5493 12253.5801)">
				<stop  offset="0" style="stop-color:#D3B15E"/>
				<stop  offset="1" style="stop-color:#D3B15E"/>
			</linearGradient>
			
				<line clip-path="url(#SVGID_8_)" mask="url(#SVGID_9_)" fill="url(#SVGID_11_)" x1="419.537" y1="504.023" x2="332.635" y2="504.023"/>
		</g>
		<rect x="15.107" y="479.571" fill="#C6BDC5" width="488.559" height="56.296"/>
		<rect x="11.508" y="482.688" fill="#4C4C4C" width="7.195" height="53.179"/>
		<polyline fill="#AA97A9" points="504.282,483.07 504.282,499.273 706.871,458.19 706.871,449.9 		"/>
		<rect x="497.034" y="475.587" fill="#4C4C4C" width="7.188" height="60.28"/>
		<rect x="706.811" y="447.633" fill="#4C4C4C" width="7.188" height="91.34"/>
		<rect y="474.178" fill="#AAAAAA" width="518.772" height="9.321"/>
		<polygon fill="#E5E5E5" points="721.186,440.363 276.398,440.363 0,474.178 518.772,474.178 		"/>
		<polygon fill="#C4C4C4" points="719.859,447.793 517.446,483.499 517.446,474.178 719.859,440.363 		"/>
	</g>
	<polyline fill="#AA97A9" points="20.391,483.499 497.034,501.126 497.034,483.499 	"/>
	<g>
		<g opacity="0.2">
			<g>
				<defs>
					<rect id="SVGID_12_" x="321.646" y="8.244" width="166.617" height="166.623"/>
				</defs>
				<clipPath id="SVGID_13_">
					<use xlink:href="#SVGID_12_"  overflow="visible"/>
				</clipPath>
				<path clip-path="url(#SVGID_13_)" d="M404.964,174.867c-45.945,0-83.318-37.372-83.318-83.309
					c0-45.938,37.373-83.314,83.318-83.314c45.938,0,83.311,37.376,83.311,83.314C488.274,137.495,450.902,174.867,404.964,174.867"
					/>
			</g>
		</g>
		<path fill="#3D423B" d="M404.964,166.629c-45.945,0-83.318-37.37-83.318-83.309c0-45.937,37.373-83.32,83.318-83.32
			c45.938,0,83.311,37.384,83.311,83.32C488.274,129.259,450.902,166.629,404.964,166.629"/>
		<path fill="#FFFFFF" d="M476.011,83.314c0,39.243-31.81,71.053-71.047,71.053c-39.248,0-71.059-31.81-71.059-71.053
			s31.811-71.047,71.059-71.047C444.201,12.268,476.011,44.071,476.011,83.314"/>
		<path fill="#FF6160" d="M404.954,12.271v70.904l50.237,50.237c12.776-12.845,20.672-30.544,20.672-50.093
			C475.863,44.127,444.134,12.353,404.954,12.271z"/>
		<path fill="#3D423B" d="M404.964,34.493c-1.287,0-2.336-1.04-2.336-2.336V19.038c0-1.284,1.049-2.332,2.336-2.332
			c1.28,0,2.328,1.048,2.328,2.332v13.119C407.292,33.453,406.244,34.493,404.964,34.493"/>
		<path fill="#3D423B" d="M404.964,148.404c-1.287,0-2.336-1.042-2.336-2.336v-13.119c0-1.284,1.049-2.332,2.336-2.332
			c1.28,0,2.328,1.048,2.328,2.332v13.119C407.292,147.362,406.244,148.404,404.964,148.404"/>
		<path fill="#3D423B" d="M358.912,82.555c0,1.284-1.048,2.332-2.336,2.332H343.46c-1.287,0-2.335-1.048-2.335-2.332
			c0-1.289,1.048-2.331,2.335-2.331h13.116C357.864,80.224,358.912,81.266,358.912,82.555"/>
		<path fill="#3D423B" d="M472.823,82.555c0,1.284-1.048,2.332-2.336,2.332h-13.115c-1.287,0-2.336-1.048-2.336-2.332
			c0-1.289,1.049-2.331,2.336-2.331h13.115C471.775,80.224,472.823,81.266,472.823,82.555"/>
		<path fill="#3D423B" d="M371.874,49.995c-0.906,0.905-2.383,0.905-3.289,0l-9.28-9.278c-0.911-0.916-0.911-2.389,0-3.299
			c0.911-0.915,2.383-0.915,3.306,0l9.264,9.28C372.798,47.606,372.798,49.081,371.874,49.995"/>
		<path fill="#3D423B" d="M452.434,130.542c-0.923,0.915-2.396,0.915-3.306,0l-9.276-9.28c-0.911-0.914-0.911-2.389,0-3.291
			c0.919-0.917,2.395-0.917,3.302,0l9.28,9.272C453.345,128.153,453.345,129.638,452.434,130.542"/>
		<path fill="#3D423B" d="M373.304,116.536c0.91,0.916,0.91,2.389,0,3.305l-9.28,9.278c-0.907,0.911-2.383,0.911-3.29,0
			c-0.91-0.914-0.91-2.389,0-3.304l9.277-9.279C370.921,115.633,372.394,115.633,373.304,116.536"/>
		<path fill="#3D423B" d="M453.851,35.99c0.918,0.909,0.918,2.39,0,3.304l-9.269,9.269c-0.923,0.921-2.395,0.921-3.306,0
			c-0.906-0.903-0.906-2.377,0-3.294l9.281-9.278C451.468,35.082,452.94,35.082,453.851,35.99"/>
		<g opacity="0.2">
			<g>
				<defs>
					<rect id="SVGID_14_" x="333.905" y="12.268" width="142.098" height="77.179"/>
				</defs>
				<clipPath id="SVGID_15_">
					<use xlink:href="#SVGID_14_"  overflow="visible"/>
				</clipPath>
				<path clip-path="url(#SVGID_15_)" d="M476.011,83.309c0,2.073-0.09,4.122-0.263,6.138
					c-3.109-36.371-33.608-64.923-70.784-64.923c-37.188,0-67.686,28.552-70.791,64.923c-0.186-2.016-0.268-4.064-0.268-6.138
					c0-39.229,31.811-71.035,71.059-71.035C444.201,12.273,476.011,44.079,476.011,83.309"/>
			</g>
		</g>
		<path fill="#3D423B" d="M413,82.555c0,4.169-3.384,7.548-7.553,7.548c-4.165,0-7.542-3.379-7.542-7.548
			c0-4.167,3.377-7.547,7.542-7.547C409.616,75.008,413,78.388,413,82.555"/>
		<polygon fill="#3D423B" points="409.143,86.496 405.144,117.283 401.762,86.42 		"/>
		<polygon fill="#3D423B" points="407.322,79.212 438.735,117.008 401.364,85.075 		"/>
	</g>
	<g>
		<g>
			<path fill="#898989" d="M420.401,463.015H283.117V452.95h137.284c2.778,0,5.031,2.252,5.031,5.03
				C425.433,460.767,423.18,463.015,420.401,463.015"/>
			<path fill="#898989" d="M382.736,463.015H250.354c-5.855,0-10.977-3.938-12.479-9.598l-23.363-88.024
				c-2.17-8.202,4-16.231,12.478-16.231h115.597c5.86,0,10.978,3.946,12.483,9.61L382.736,463.015z"/>
		</g>
		<g>
			<g opacity="0.2">
				<g>
					<defs>
						
							<rect id="SVGID_16_" x="272.557" y="381.565" transform="matrix(0.98 -0.1989 0.1989 0.98 -75.3378 67.5214)" width="51.694" height="54.347"/>
					</defs>
					<clipPath id="SVGID_17_">
						<use xlink:href="#SVGID_16_"  overflow="visible"/>
					</clipPath>
					<g clip-path="url(#SVGID_17_)">
						<defs>
							
								<rect id="SVGID_18_" x="272.559" y="381.565" transform="matrix(0.98 -0.1989 0.1989 0.98 -75.3377 67.5217)" width="51.694" height="54.346"/>
						</defs>
						<clipPath id="SVGID_19_">
							<use xlink:href="#SVGID_18_"  overflow="visible"/>
						</clipPath>
						<g transform="matrix(1 5.823235e-010 -5.823235e-010 1 -2.175780e-006 9.062705e-007)" clip-path="url(#SVGID_19_)">
							
								<image overflow="visible" width="702" height="738" xlink:href="8E105CB9.png"  transform="matrix(-0.0722 0.0146 0.0146 0.0722 318.3291 376.9707)">
							</image>
						</g>
					</g>
				</g>
			</g>
			<path fill="#FFFFFF" d="M278.672,419.567c-0.076-0.492-0.135-0.992-0.173-1.486c-0.086-1.242-0.051-2.517,0.113-3.785
				c0.037-0.294,0.083-0.585,0.142-0.882c0.018-0.095,0.041-0.186,0.063-0.276c0.039-0.195,0.087-0.385,0.141-0.588
				c0.026-0.092,0.052-0.179,0.076-0.266l0.016-0.047c0.055-0.171,0.109-0.341,0.167-0.505c0.043-0.112,0.087-0.223,0.124-0.32
				c0.064-0.163,0.13-0.319,0.209-0.487c0.049-0.102,0.096-0.203,0.146-0.301c0.079-0.16,0.162-0.315,0.254-0.469
				c0.055-0.09,0.109-0.186,0.166-0.279c0.099-0.156,0.2-0.306,0.309-0.457c0.059-0.08,0.115-0.16,0.176-0.232
				c0.115-0.15,0.235-0.295,0.365-0.439c0.056-0.066,0.117-0.136,0.175-0.197c1.188-1.252,2.744-2.102,4.505-2.459
				c0.555-0.115,1.108-0.174,1.638-0.195c0.102-0.379,0.189-0.774,0.267-1.177c-4.24,0.723-7.967-1.915-8.683-2.459
				c-1.232-0.944-1.962-2.427-1.802-3.979c0.16-1.532,1.036-2.839,2.42-3.511c0.186-0.113,1.206-0.757,2.27-2.057
				c1.342-1.633,3.217-2.758,5.293-3.18c1.18-0.24,2.37-0.254,3.537-0.051c2.078-2.834,5.013-4.77,8.351-5.448
				c2.884-0.584,5.901-0.156,8.499,1.206c3.379,1.771,6.066,2.11,6.32,2.136c1.529,0.098,2.865,0.973,3.595,2.324
				c0.733,1.354,0.677,2.995-0.088,4.334c-0.347,0.604-3.047,5.126-7.601,7.363c0.631,0.868,1.188,1.707,1.668,2.507
				c2.301-0.248,4.543,0.261,6.537,1.485c2.737,1.681,4.619,5.364,4.906,9.61c0.316,4.689-1.354,8.898-4.594,11.547
				c-0.019,0.015-0.035,0.032-0.056,0.047c-0.271,0.219-0.548,0.422-0.819,0.607c-0.051,0.032-0.1,0.064-0.15,0.098
				c-0.279,0.182-0.543,0.345-0.822,0.494c-0.069,0.04-0.146,0.079-0.228,0.119c-0.219,0.115-0.482,0.251-0.776,0.378
				c-0.112,0.051-0.232,0.098-0.37,0.149l-0.015,0.006c-0.178,0.074-0.426,0.175-0.705,0.27c-0.16,0.055-0.323,0.102-0.49,0.149
				l-0.152,0.043c-0.167,0.052-0.33,0.099-0.505,0.146c-0.2,0.048-0.399,0.091-0.606,0.135c-0.145,0.029-0.298,0.055-0.451,0.083
				c-0.047,0.012-0.097,0.019-0.141,0.025c-2.442,0.403-4.714,0.359-6.75-0.123c-0.504-0.12-0.947-0.251-1.357-0.396
				c-0.891-0.321-1.731-0.734-2.506-1.239c-0.143,0.12-0.283,0.231-0.426,0.342c-0.015,0.011-0.031,0.021-0.047,0.032
				c-0.029,0.025-0.059,0.043-0.09,0.066c-0.266,0.203-0.523,0.382-0.777,0.537c-0.073,0.051-0.153,0.095-0.236,0.142
				c-0.203,0.123-0.466,0.276-0.767,0.433c-0.108,0.054-0.217,0.105-0.349,0.163l-0.014,0.007c-0.176,0.084-0.411,0.196-0.684,0.309
				c-0.156,0.066-0.324,0.124-0.488,0.182l-0.145,0.052c-0.162,0.062-0.327,0.119-0.494,0.171c-0.378,0.118-0.773,0.225-1.177,0.315
				c-0.007,0.004-0.017,0.004-0.028,0.008c-0.73,0.166-1.438,0.287-2.128,0.371c-0.353,0.042-0.704,0.071-1.052,0.093
				c-0.688,0.04-1.371,0.04-2.033-0.004c-1.001-0.068-1.975-0.236-2.887-0.501c-3.223-0.934-5.75-3.043-7.322-6.103
				c-0.123-0.238-0.244-0.489-0.354-0.732c-0.21-0.484-0.403-0.992-0.563-1.508c-0.08-0.251-0.152-0.505-0.221-0.763
				c-0.128-0.494-0.233-1.007-0.319-1.528L278.672,419.567z"/>
			<g opacity="0.4">
				<g>
					<defs>
						
							<rect id="SVGID_20_" x="278.439" y="386.204" transform="matrix(0.98 -0.1989 0.1989 0.98 -75.1606 67.5847)" width="40.929" height="43.581"/>
					</defs>
					<clipPath id="SVGID_21_">
						<use xlink:href="#SVGID_20_"  overflow="visible"/>
					</clipPath>
					<path clip-path="url(#SVGID_21_)" fill="#6083A8" d="M288.71,408.081c0.077-0.018,0.142-0.072,0.167-0.146
						c0.037-0.098,0.072-0.196,0.107-0.293c0.045-0.12-0.021-0.252-0.141-0.291c-0.117-0.046-0.25,0.019-0.292,0.138
						c-0.014,0.041-0.026,0.081-0.041,0.121c-0.043-0.004-0.092-0.008-0.135-0.012c-0.128-0.008-0.236,0.083-0.248,0.215
						c-0.008,0.126,0.09,0.236,0.216,0.247c0.101,0.003,0.194,0.013,0.298,0.024C288.666,408.085,288.688,408.085,288.71,408.081z"
						/>
					<path clip-path="url(#SVGID_21_)" fill="#6083A8" d="M289.15,406.323c-0.125-0.029-0.197-0.151-0.168-0.276
						c0.04-0.163,0.076-0.327,0.112-0.493c0.024-0.123,0.153-0.199,0.272-0.175c0.127,0.026,0.207,0.148,0.178,0.272
						c-0.036,0.168-0.076,0.338-0.115,0.506c-0.021,0.086-0.096,0.152-0.18,0.17C289.219,406.335,289.182,406.335,289.15,406.323z
						 M289.561,404.326c-0.129-0.019-0.214-0.135-0.197-0.259c0.025-0.166,0.047-0.334,0.068-0.501
						c0.016-0.127,0.131-0.213,0.256-0.198c0.127,0.014,0.216,0.129,0.199,0.254c-0.019,0.171-0.044,0.341-0.066,0.512
						c-0.014,0.099-0.091,0.174-0.184,0.192C289.614,404.33,289.584,404.33,289.561,404.326z"/>
					<path clip-path="url(#SVGID_21_)" fill="#6083A8" d="M289.855,402.296c0.097-0.02,0.172-0.104,0.18-0.211l0.022-0.306
						c0.003-0.09-0.04-0.175-0.119-0.213c-0.077-0.045-0.172-0.041-0.244,0.011c-0.08,0.058-0.164,0.112-0.247,0.166
						c-0.107,0.066-0.139,0.21-0.072,0.316c0.052,0.076,0.139,0.116,0.223,0.105c0.031,0.076,0.107,0.131,0.193,0.135
						C289.811,402.303,289.833,402.3,289.855,402.296z"/>
					<path clip-path="url(#SVGID_21_)" fill="#6083A8" d="M287.425,403.033c-0.127,0.024-0.245-0.059-0.27-0.182
						s0.059-0.243,0.178-0.269h0.008l0.046-0.012c0.172-0.031,0.342-0.075,0.506-0.122c0.119-0.037,0.247,0.031,0.284,0.155
						c0.035,0.124-0.034,0.251-0.157,0.287c-0.174,0.051-0.355,0.094-0.537,0.131L287.425,403.033z M285.596,403.146
						c-0.193-0.011-0.397-0.032-0.604-0.058c-0.124-0.019-0.214-0.135-0.196-0.262c0.017-0.127,0.133-0.211,0.258-0.193
						c0.195,0.022,0.389,0.045,0.574,0.056c0.126,0.007,0.225,0.115,0.217,0.243c-0.008,0.105-0.085,0.192-0.185,0.21
						C285.64,403.146,285.619,403.146,285.596,403.146z M283.223,402.666c-0.193-0.068-0.387-0.134-0.567-0.21
						c-0.12-0.044-0.179-0.18-0.128-0.298c0.045-0.121,0.178-0.175,0.295-0.127c0.176,0.069,0.358,0.134,0.547,0.199
						c0.121,0.04,0.186,0.171,0.143,0.29c-0.025,0.08-0.094,0.139-0.171,0.153C283.302,402.682,283.262,402.678,283.223,402.666z
						 M281.024,401.668c-0.192-0.113-0.368-0.219-0.516-0.313c-0.106-0.072-0.138-0.213-0.069-0.319
						c0.069-0.105,0.212-0.138,0.316-0.068c0.146,0.091,0.313,0.192,0.497,0.301c0.112,0.066,0.149,0.204,0.087,0.313
						c-0.035,0.061-0.09,0.098-0.151,0.111C281.134,401.703,281.076,401.696,281.024,401.668z M279.143,400.076
						c-0.105-0.185-0.189-0.384-0.25-0.593c-0.037-0.122,0.031-0.25,0.156-0.285c0.118-0.033,0.246,0.031,0.285,0.156
						c0.05,0.174,0.121,0.338,0.209,0.493c0.063,0.112,0.023,0.251-0.084,0.315c-0.021,0.012-0.043,0.019-0.069,0.026
						C279.295,400.207,279.194,400.167,279.143,400.076z M279.136,397.894c-0.116-0.055-0.167-0.189-0.12-0.305
						c0.09-0.196,0.2-0.386,0.332-0.556c0.075-0.103,0.219-0.121,0.322-0.043c0.102,0.075,0.119,0.22,0.043,0.323
						c-0.107,0.141-0.199,0.296-0.275,0.464c-0.029,0.068-0.09,0.116-0.164,0.131C279.23,397.916,279.182,397.912,279.136,397.894z
						 M280.744,396.234c-0.076-0.103-0.051-0.248,0.055-0.321c0.135-0.094,0.287-0.209,0.462-0.348
						c0.102-0.081,0.243-0.065,0.323,0.033c0.079,0.102,0.063,0.246-0.036,0.326c-0.179,0.141-0.342,0.266-0.483,0.363
						c-0.029,0.022-0.054,0.032-0.087,0.04C280.889,396.342,280.799,396.311,280.744,396.234z M282.547,394.701
						c-0.092-0.088-0.1-0.233-0.012-0.328c0.127-0.133,0.254-0.278,0.387-0.433c0.082-0.096,0.227-0.107,0.325-0.027
						c0.094,0.084,0.106,0.229,0.025,0.327c-0.136,0.155-0.269,0.308-0.399,0.45c-0.033,0.036-0.08,0.058-0.125,0.069
						C282.68,394.774,282.604,394.752,282.547,394.701z M284.166,392.977c-0.076-0.103-0.062-0.245,0.039-0.323
						c0.16-0.125,0.326-0.244,0.495-0.359c0.104-0.07,0.251-0.041,0.319,0.064s0.04,0.25-0.064,0.318
						c-0.158,0.106-0.313,0.22-0.467,0.338c-0.027,0.023-0.061,0.037-0.094,0.045C284.311,393.078,284.226,393.048,284.166,392.977z
						 M289.313,391.493c-0.196-0.012-0.389-0.012-0.578-0.009c-0.123,0.004-0.231-0.098-0.236-0.226
						c-0.004-0.126,0.1-0.229,0.227-0.231c0.199-0.008,0.406-0.008,0.609,0.003c0.128,0.008,0.227,0.113,0.219,0.244
						c-0.004,0.108-0.084,0.192-0.186,0.214C289.349,391.493,289.332,391.493,289.313,391.493z M286.192,391.768
						c-0.04-0.119,0.022-0.254,0.143-0.294c0.188-0.068,0.384-0.131,0.581-0.186c0.115-0.04,0.25,0.041,0.283,0.163
						c0.033,0.124-0.04,0.248-0.164,0.28c-0.182,0.051-0.366,0.108-0.549,0.175c-0.006,0.004-0.029,0.007-0.029,0.007
						C286.345,391.937,286.232,391.877,286.192,391.768z"/>
					<path clip-path="url(#SVGID_21_)" fill="#6083A8" d="M291.416,391.873c0.021-0.007,0.04-0.015,0.057-0.021
						c0.03-0.014,0.063-0.032,0.092-0.047c0.044-0.019,0.076-0.051,0.098-0.088l0.105-0.166c0.066-0.11,0.034-0.252-0.075-0.316
						c-0.11-0.065-0.251-0.033-0.317,0.076l-0.051,0.079c-0.061-0.018-0.124-0.036-0.186-0.055c-0.12-0.036-0.246,0.037-0.286,0.158
						c-0.032,0.122,0.036,0.25,0.159,0.285c0.096,0.026,0.193,0.056,0.285,0.088C291.336,391.877,291.375,391.88,291.416,391.873z"
						/>
					<path clip-path="url(#SVGID_21_)" fill="#6083A8" d="M308.354,399.905c-0.055-0.115-0.005-0.254,0.111-0.305
						c0.186-0.083,0.367-0.175,0.544-0.266c0.117-0.058,0.252-0.014,0.313,0.095c0.058,0.117,0.011,0.255-0.098,0.313
						c-0.188,0.099-0.378,0.189-0.571,0.28c-0.014,0.007-0.032,0.011-0.047,0.015C308.501,400.059,308.396,400.007,308.354,399.905z
						 M310.506,398.693c-0.072-0.103-0.047-0.248,0.056-0.321c0.167-0.118,0.329-0.243,0.486-0.369
						c0.101-0.076,0.243-0.063,0.323,0.039c0.08,0.098,0.061,0.243-0.035,0.324c-0.166,0.127-0.332,0.253-0.507,0.377
						c-0.024,0.022-0.058,0.033-0.087,0.041C310.655,398.801,310.563,398.77,310.506,398.693z M312.421,397.112
						c-0.091-0.091-0.091-0.236,0-0.327c0.149-0.144,0.29-0.291,0.428-0.436c0.083-0.095,0.233-0.099,0.324-0.011
						c0.093,0.087,0.099,0.232,0.01,0.326c-0.141,0.15-0.286,0.299-0.439,0.447c-0.032,0.033-0.072,0.056-0.115,0.062
						C312.555,397.192,312.475,397.168,312.421,397.112z M314.088,395.274c-0.102-0.075-0.119-0.222-0.041-0.322
						c0.132-0.172,0.256-0.336,0.371-0.488c0.074-0.104,0.219-0.126,0.319-0.05c0.106,0.073,0.124,0.218,0.052,0.319
						c-0.117,0.159-0.242,0.327-0.378,0.501c-0.038,0.049-0.085,0.073-0.139,0.084C314.211,395.333,314.143,395.318,314.088,395.274
						z M315.516,393.245c-0.109-0.063-0.153-0.204-0.089-0.313c0.089-0.168,0.158-0.343,0.205-0.523
						c0.03-0.124,0.155-0.195,0.28-0.164c0.122,0.029,0.196,0.155,0.162,0.28c-0.055,0.218-0.141,0.429-0.246,0.628
						c-0.033,0.059-0.091,0.1-0.158,0.112C315.62,393.277,315.564,393.27,315.516,393.245z M315.449,390.765l-0.015-0.027
						c-0.083-0.158-0.185-0.307-0.298-0.439c-0.088-0.095-0.075-0.241,0.023-0.324c0.094-0.084,0.235-0.073,0.319,0.021
						c0.141,0.16,0.265,0.338,0.364,0.527l0.016,0.033c0.06,0.111,0.012,0.25-0.101,0.308c-0.019,0.012-0.036,0.016-0.059,0.022
						C315.602,390.903,315.496,390.856,315.449,390.765z M313.674,389.521c-0.037,0-0.073-0.008-0.109-0.008
						c0,0-0.181-0.019-0.516-0.072c-0.127-0.02-0.21-0.139-0.188-0.266c0.019-0.124,0.139-0.207,0.261-0.189
						c0.299,0.047,0.479,0.065,0.479,0.065c0.044,0.004,0.089,0.011,0.128,0.015c0.127,0.015,0.218,0.132,0.203,0.254
						c-0.015,0.102-0.092,0.182-0.186,0.201C313.725,389.524,313.697,389.524,313.674,389.521z M311.21,389.032
						c-0.191-0.054-0.391-0.111-0.602-0.174c-0.122-0.04-0.192-0.168-0.153-0.286c0.036-0.125,0.162-0.193,0.287-0.156
						c0.207,0.065,0.404,0.119,0.589,0.17c0.124,0.036,0.196,0.16,0.159,0.283c-0.022,0.087-0.091,0.149-0.175,0.167
						C311.28,389.043,311.247,389.039,311.21,389.032z M308.835,388.237c-0.188-0.076-0.384-0.155-0.58-0.239
						c-0.116-0.048-0.172-0.182-0.12-0.302c0.047-0.116,0.183-0.171,0.303-0.12c0.191,0.081,0.381,0.157,0.564,0.233
						c0.121,0.046,0.18,0.182,0.132,0.297c-0.028,0.076-0.095,0.128-0.168,0.143C308.924,388.256,308.875,388.252,308.835,388.237z
						 M292.516,390.102c-0.098-0.08-0.108-0.227-0.025-0.323c0.135-0.16,0.273-0.321,0.415-0.474
						c0.085-0.094,0.232-0.098,0.327-0.011c0.094,0.083,0.098,0.23,0.014,0.324c-0.142,0.148-0.277,0.301-0.406,0.457
						c-0.033,0.041-0.079,0.064-0.127,0.076C292.643,390.166,292.574,390.147,292.516,390.102z M306.557,387.198l-0.119-0.062
						c-0.14-0.075-0.282-0.146-0.427-0.214c-0.114-0.051-0.165-0.189-0.11-0.306c0.051-0.112,0.189-0.163,0.306-0.108
						c0.147,0.068,0.303,0.145,0.446,0.223l0.117,0.057c0.111,0.062,0.155,0.196,0.098,0.313c-0.033,0.065-0.09,0.105-0.16,0.12
						C306.66,387.229,306.605,387.225,306.557,387.198z M294.256,388.34c-0.076-0.099-0.061-0.244,0.035-0.321
						c0.17-0.133,0.34-0.261,0.511-0.38c0.101-0.076,0.243-0.052,0.319,0.05c0.071,0.103,0.047,0.251-0.055,0.323
						c-0.164,0.117-0.327,0.24-0.486,0.364c-0.028,0.024-0.063,0.04-0.096,0.047C294.401,388.44,294.314,388.412,294.256,388.34z
						 M304.306,386.291c-0.196-0.052-0.392-0.102-0.587-0.142c-0.125-0.029-0.204-0.148-0.18-0.276
						c0.027-0.124,0.15-0.203,0.273-0.174c0.207,0.043,0.409,0.093,0.618,0.148c0.121,0.036,0.192,0.16,0.159,0.283
						c-0.027,0.087-0.096,0.148-0.18,0.168C304.379,386.302,304.343,386.302,304.306,386.291z M296.32,386.971
						c-0.06-0.117-0.014-0.255,0.104-0.31c0.189-0.095,0.379-0.183,0.573-0.266c0.117-0.05,0.251,0.004,0.303,0.12
						c0.052,0.117-0.003,0.25-0.12,0.301c-0.184,0.081-0.371,0.168-0.552,0.256c-0.019,0.01-0.04,0.017-0.058,0.021
						C296.473,387.112,296.367,387.065,296.32,386.971z M301.913,385.92c-0.2-0.003-0.402-0.007-0.606-0.003
						c-0.129,0.003-0.234-0.099-0.236-0.226c0-0.127,0.1-0.233,0.225-0.237c0.216-0.003,0.426,0,0.633,0.008
						c0.129,0.004,0.229,0.113,0.225,0.239c-0.003,0.11-0.084,0.193-0.185,0.216C301.949,385.92,301.936,385.924,301.913,385.92z
						 M298.625,386.069c-0.028-0.123,0.044-0.247,0.168-0.279c0.16-0.041,0.314-0.073,0.477-0.105l0.14-0.03
						c0.128-0.024,0.249,0.058,0.274,0.183c0.021,0.128-0.061,0.246-0.183,0.269l-0.003,0.004l-0.139,0.024
						c-0.154,0.033-0.306,0.066-0.458,0.102l-0.009,0.004C298.773,386.262,298.654,386.189,298.625,386.069z"/>
					<path clip-path="url(#SVGID_21_)" fill="#6083A8" d="M306.759,400.963c0.034-0.007,0.072-0.026,0.101-0.051
						c0.084-0.07,0.108-0.186,0.059-0.276c0.091-0.048,0.141-0.156,0.117-0.261c-0.033-0.125-0.158-0.2-0.281-0.163
						c-0.098,0.024-0.191,0.046-0.294,0.068c-0.076,0.018-0.142,0.075-0.167,0.152c-0.025,0.076-0.008,0.163,0.045,0.223
						l0.197,0.231C306.593,400.952,306.678,400.978,306.759,400.963z"/>
					<path clip-path="url(#SVGID_21_)" fill="#6083A8" d="M309.141,404.435c-0.094-0.152-0.195-0.304-0.298-0.46
						c-0.069-0.106-0.039-0.249,0.069-0.32c0.104-0.069,0.247-0.04,0.315,0.065c0.103,0.159,0.206,0.316,0.302,0.469
						c0.069,0.108,0.036,0.25-0.074,0.318c-0.021,0.016-0.049,0.026-0.071,0.033C309.293,404.555,309.196,404.519,309.141,404.435z
						 M307.899,402.615c-0.106-0.146-0.216-0.291-0.331-0.439c-0.077-0.102-0.055-0.243,0.043-0.324
						c0.106-0.075,0.246-0.058,0.324,0.044c0.116,0.149,0.229,0.298,0.336,0.448c0.074,0.102,0.053,0.25-0.05,0.322
						c-0.028,0.022-0.058,0.033-0.09,0.04C308.047,402.724,307.957,402.692,307.899,402.615z"/>
					<path clip-path="url(#SVGID_21_)" fill="#6083A8" d="M310.384,406.236h0.006c0.099-0.025,0.196-0.047,0.294-0.064
						c0.123-0.03,0.204-0.149,0.179-0.273c-0.028-0.124-0.148-0.207-0.272-0.182c0,0,0,0-0.004,0.003
						c-0.044,0.009-0.088,0.02-0.135,0.026l-0.062-0.116c-0.062-0.107-0.204-0.148-0.315-0.087
						c-0.109,0.062-0.147,0.203-0.088,0.313l0.15,0.269C310.184,406.211,310.284,406.255,310.384,406.236z"/>
					<path clip-path="url(#SVGID_21_)" fill="#6083A8" d="M312.242,427.288c-0.029-0.122,0.047-0.246,0.172-0.275l0.156-0.036
						c0.137-0.037,0.269-0.076,0.398-0.117l0.025-0.007c0.12-0.031,0.236,0.04,0.271,0.16c0.037,0.12-0.047,0.254-0.162,0.291
						c-0.139,0.04-0.275,0.083-0.422,0.116l-0.162,0.039h-0.007C312.389,427.484,312.27,427.413,312.242,427.288z M310.674,427.771
						c-0.206,0.026-0.413,0.048-0.62,0.063c-0.127,0.011-0.237-0.084-0.249-0.212c-0.01-0.126,0.084-0.235,0.211-0.246
						c0.2-0.019,0.4-0.037,0.602-0.062c0.129-0.015,0.245,0.075,0.256,0.202c0.018,0.121-0.061,0.23-0.178,0.254
						C310.684,427.771,310.674,427.771,310.674,427.771z M314.578,426.537c-0.051-0.117-0.008-0.254,0.109-0.308
						c0.167-0.077,0.313-0.154,0.453-0.231l0.09-0.042c0.117-0.06,0.251-0.016,0.311,0.099c0.059,0.111,0.014,0.254-0.099,0.312
						l-0.095,0.043c-0.138,0.074-0.291,0.153-0.461,0.233c-0.018,0.011-0.036,0.019-0.055,0.021
						C314.735,426.683,314.629,426.632,314.578,426.537z M308.182,427.885c-0.207-0.009-0.418-0.02-0.621-0.032
						c-0.127-0.012-0.222-0.12-0.211-0.248c0.008-0.127,0.118-0.222,0.243-0.215c0.2,0.016,0.405,0.026,0.607,0.033
						c0.124,0.004,0.227,0.112,0.217,0.236c0,0.109-0.076,0.199-0.181,0.217C308.222,427.885,308.203,427.885,308.182,427.885z
						 M316.695,425.288c-0.079-0.099-0.064-0.243,0.036-0.324l0.096-0.072c0.124-0.103,0.243-0.206,0.362-0.316
						c0.096-0.084,0.24-0.079,0.328,0.02c0.082,0.091,0.075,0.238-0.019,0.322c-0.124,0.113-0.251,0.225-0.386,0.33l-0.1,0.08
						c-0.027,0.021-0.061,0.037-0.094,0.045C316.84,425.389,316.75,425.356,316.695,425.288z M305.705,427.579
						c-0.063-0.011-0.117-0.025-0.175-0.04c-0.153-0.035-0.294-0.072-0.436-0.112c-0.12-0.032-0.196-0.16-0.161-0.283
						c0.034-0.12,0.161-0.193,0.284-0.16c0.134,0.036,0.272,0.073,0.421,0.108c0.054,0.011,0.109,0.026,0.164,0.037
						c0.124,0.029,0.199,0.148,0.174,0.276c-0.018,0.091-0.09,0.156-0.178,0.174C305.767,427.587,305.738,427.587,305.705,427.579z
						 M303.329,426.773c-0.192-0.091-0.378-0.189-0.559-0.29c-0.113-0.063-0.15-0.2-0.092-0.313
						c0.062-0.108,0.205-0.149,0.313-0.088c0.178,0.099,0.353,0.189,0.538,0.276c0.113,0.051,0.164,0.193,0.105,0.305
						c-0.029,0.07-0.096,0.113-0.16,0.128C303.428,426.802,303.377,426.795,303.329,426.773z M318.45,423.573
						c-0.099-0.076-0.121-0.222-0.044-0.319c0.124-0.161,0.239-0.324,0.353-0.491c0.068-0.105,0.211-0.134,0.319-0.062
						c0.105,0.069,0.131,0.212,0.061,0.316c-0.115,0.178-0.238,0.345-0.365,0.515c-0.037,0.045-0.084,0.073-0.138,0.084
						C318.574,423.627,318.509,423.616,318.45,423.573z M319.746,421.487c-0.116-0.05-0.166-0.186-0.116-0.304
						c0.085-0.183,0.16-0.368,0.232-0.557c0.049-0.119,0.183-0.179,0.299-0.13c0.115,0.042,0.177,0.178,0.13,0.297
						c-0.076,0.196-0.156,0.39-0.239,0.578c-0.032,0.072-0.095,0.119-0.167,0.135C319.843,421.514,319.794,421.511,319.746,421.487z
						 M320.553,419.17c-0.124-0.027-0.202-0.151-0.174-0.274c0.043-0.197,0.08-0.394,0.111-0.594
						c0.022-0.126,0.139-0.21,0.266-0.188c0.128,0.019,0.212,0.138,0.189,0.262c-0.037,0.206-0.072,0.413-0.115,0.616
						c-0.023,0.091-0.096,0.161-0.179,0.178C320.618,419.174,320.586,419.174,320.553,419.17z M320.887,416.733
						c-0.126-0.003-0.229-0.109-0.225-0.235c0.004-0.2,0.008-0.404,0.004-0.604c0-0.127,0.098-0.233,0.229-0.235
						c0.124,0,0.229,0.101,0.232,0.225c0.004,0.21,0,0.422-0.004,0.628c-0.004,0.108-0.081,0.196-0.186,0.219
						C320.92,416.733,320.905,416.737,320.887,416.733z M320.785,414.278c-0.127,0.018-0.244-0.068-0.26-0.196
						c-0.027-0.2-0.063-0.398-0.099-0.596c-0.022-0.124,0.058-0.243,0.181-0.269h0.002c0.125-0.022,0.244,0.059,0.271,0.186
						c0.036,0.2,0.069,0.406,0.098,0.614c0.019,0.122-0.062,0.235-0.181,0.258C320.792,414.278,320.785,414.278,320.785,414.278z
						 M319.976,411.729c-0.064-0.188-0.132-0.378-0.207-0.563c-0.043-0.119,0.011-0.254,0.131-0.297
						c0.12-0.052,0.255,0.012,0.298,0.127c0.076,0.192,0.148,0.393,0.215,0.592c0.039,0.12-0.026,0.25-0.146,0.29
						c-0.012,0.004-0.026,0.004-0.026,0.004C320.125,411.907,320.012,411.844,319.976,411.729z M318.973,409.546
						c-0.105-0.172-0.214-0.338-0.33-0.498c-0.074-0.105-0.05-0.247,0.055-0.319c0.105-0.076,0.246-0.051,0.322,0.051
						c0.117,0.166,0.232,0.345,0.346,0.526c0.066,0.109,0.032,0.251-0.076,0.315c-0.025,0.016-0.052,0.026-0.071,0.03
						C319.122,409.669,319.023,409.628,318.973,409.546z M317.447,407.726c-0.152-0.131-0.309-0.25-0.473-0.359
						c-0.104-0.072-0.13-0.215-0.058-0.319c0.073-0.105,0.218-0.132,0.319-0.062c0.174,0.119,0.342,0.25,0.51,0.389
						c0.094,0.084,0.108,0.229,0.025,0.327c-0.037,0.038-0.082,0.064-0.131,0.071C317.574,407.787,317.502,407.772,317.447,407.726z
						 M315.391,406.539c-0.184-0.074-0.373-0.136-0.564-0.197c-0.121-0.036-0.189-0.167-0.154-0.287
						c0.041-0.119,0.168-0.189,0.288-0.152c0.202,0.062,0.402,0.131,0.598,0.208c0.119,0.047,0.174,0.18,0.132,0.297
						c-0.027,0.076-0.097,0.128-0.17,0.142C315.479,406.56,315.435,406.556,315.391,406.539z M313.067,406.009
						c-0.199-0.016-0.401-0.022-0.6-0.022c-0.128,0-0.229-0.103-0.229-0.232c0-0.127,0.107-0.229,0.229-0.229
						c0.212,0.003,0.425,0.007,0.636,0.025c0.123,0.011,0.222,0.121,0.211,0.247c-0.008,0.105-0.088,0.189-0.181,0.212
						C313.111,406.012,313.089,406.012,313.067,406.009z"/>
					<path clip-path="url(#SVGID_21_)" fill="#6083A8" d="M301.396,425.459c0.052-0.012,0.096-0.04,0.131-0.08
						c0.082-0.099,0.068-0.244-0.029-0.324c-0.076-0.065-0.152-0.131-0.225-0.195c-0.043-0.044-0.104-0.063-0.166-0.063
						c-0.059,0.004-0.12,0.032-0.162,0.079c-0.064,0.073-0.133,0.15-0.199,0.223c-0.086,0.095-0.083,0.239,0.013,0.323
						c0.091,0.087,0.237,0.083,0.321-0.012c0.022-0.018,0.041-0.038,0.059-0.058c0.022,0.02,0.045,0.036,0.063,0.055
						C301.261,425.454,301.332,425.47,301.396,425.459z"/>
					<path clip-path="url(#SVGID_21_)" fill="#6083A8" d="M294.398,428.589c-0.025-0.128,0.057-0.247,0.182-0.271l0.068-0.016
						c0.146-0.028,0.293-0.062,0.465-0.102l0.043-0.007c0.125-0.025,0.252,0.047,0.281,0.169c0.027,0.121-0.049,0.249-0.172,0.277
						l-0.073,0.015c-0.152,0.037-0.301,0.068-0.453,0.099l-0.069,0.015C294.547,428.793,294.423,428.712,294.398,428.589z
						 M292.861,429.036c-0.196,0.021-0.389,0.035-0.6,0.051l-0.021-0.232l0.01-0.229c0.186-0.011,0.378-0.024,0.566-0.047
						c0.129-0.011,0.241,0.08,0.251,0.207c0.013,0.12-0.068,0.226-0.181,0.251H292.861z M296.719,427.964
						c-0.042-0.119,0.02-0.25,0.142-0.294c0.072-0.025,0.146-0.051,0.218-0.083c0.108-0.04,0.215-0.087,0.316-0.139
						c0.116-0.05,0.255-0.004,0.305,0.113c0.055,0.112,0.004,0.254-0.111,0.304c-0.109,0.052-0.223,0.103-0.335,0.15
						c-0.075,0.032-0.157,0.062-0.24,0.087c-0.011,0.007-0.022,0.007-0.03,0.01C296.871,428.135,296.761,428.073,296.719,427.964z
						 M290.42,429.079c-0.202-0.015-0.404-0.033-0.609-0.058c-0.123-0.015-0.213-0.128-0.201-0.254
						c0.016-0.128,0.127-0.22,0.256-0.204c0.195,0.021,0.394,0.044,0.59,0.055c0.125,0.011,0.222,0.119,0.212,0.247
						c-0.007,0.104-0.083,0.188-0.185,0.21C290.463,429.079,290.441,429.079,290.42,429.079z M298.885,426.925
						c-0.07-0.104-0.041-0.246,0.063-0.315c0.157-0.105,0.317-0.218,0.479-0.342c0.105-0.075,0.247-0.054,0.324,0.047
						c0.075,0.102,0.054,0.248-0.047,0.324c-0.172,0.126-0.339,0.247-0.501,0.353c-0.026,0.017-0.052,0.028-0.081,0.036
						C299.031,427.042,298.938,427.005,298.885,426.925z M288.009,428.665l-0.082-0.022c-0.173-0.05-0.339-0.105-0.502-0.159
						c-0.123-0.043-0.189-0.175-0.146-0.295c0.039-0.118,0.174-0.185,0.289-0.141c0.16,0.055,0.324,0.105,0.488,0.152l0.077,0.022
						c0.121,0.036,0.19,0.163,0.159,0.283c-0.026,0.087-0.096,0.148-0.18,0.163C288.081,428.677,288.045,428.677,288.009,428.665z
						 M285.738,427.728c-0.182-0.098-0.354-0.207-0.525-0.314c-0.11-0.069-0.139-0.211-0.068-0.321
						c0.068-0.104,0.209-0.133,0.318-0.068c0.164,0.109,0.33,0.207,0.501,0.306c0.108,0.061,0.148,0.202,0.088,0.313
						c-0.034,0.061-0.092,0.102-0.155,0.112C285.844,427.764,285.789,427.758,285.738,427.728z M283.763,426.268
						c-0.145-0.138-0.29-0.287-0.433-0.436c-0.083-0.095-0.079-0.239,0.011-0.323c0.096-0.087,0.241-0.083,0.328,0.012
						c0.134,0.141,0.271,0.283,0.413,0.417c0.092,0.087,0.095,0.232,0.008,0.323c-0.037,0.037-0.076,0.059-0.12,0.068
						C283.897,426.345,283.82,426.325,283.763,426.268z M282.201,424.379c-0.108-0.171-0.219-0.345-0.319-0.526
						c-0.062-0.108-0.026-0.251,0.083-0.313c0.113-0.065,0.254-0.025,0.316,0.083c0.103,0.175,0.199,0.342,0.308,0.506
						c0.069,0.105,0.037,0.246-0.068,0.318c-0.024,0.016-0.053,0.026-0.079,0.03C282.35,424.496,282.255,424.459,282.201,424.379z
						 M281.096,422.193c-0.075-0.189-0.145-0.382-0.209-0.577c-0.041-0.121,0.023-0.251,0.148-0.291
						c0.125-0.041,0.25,0.024,0.292,0.148c0.062,0.186,0.13,0.371,0.198,0.552c0.045,0.121-0.015,0.255-0.135,0.298
						c-0.01,0.008-0.021,0.012-0.037,0.012C281.25,422.359,281.138,422.302,281.096,422.193z M280.693,420.024
						c-0.123,0.025-0.244-0.055-0.27-0.183c-0.028-0.159-0.059-0.323-0.086-0.486l-0.019-0.115
						c-0.015-0.124,0.073-0.248,0.196-0.262c0.123-0.019,0.245,0.069,0.262,0.195l0.014,0.109c0.029,0.16,0.055,0.315,0.084,0.474
						c0.027,0.122-0.055,0.242-0.178,0.268H280.693z M280.386,417.641c-0.124,0.005-0.233-0.095-0.237-0.221
						c-0.007-0.199-0.014-0.402-0.014-0.61c0-0.124,0.101-0.228,0.229-0.228c0.127,0,0.232,0.102,0.232,0.228
						c0,0.2,0.004,0.396,0.011,0.593c0.007,0.116-0.075,0.214-0.183,0.235C280.414,417.638,280.399,417.641,280.386,417.641z
						 M280.428,415.237c-0.126-0.01-0.216-0.124-0.207-0.252c0.015-0.159,0.038-0.314,0.055-0.475l0.02-0.131
						c0.018-0.127,0.133-0.21,0.26-0.195c0.125,0.018,0.216,0.134,0.197,0.257l-0.018,0.127c-0.02,0.152-0.037,0.31-0.055,0.465
						c-0.008,0.103-0.087,0.183-0.182,0.201C280.477,415.237,280.454,415.241,280.428,415.237z M280.85,412.876
						c-0.121-0.039-0.189-0.171-0.149-0.29c0.034-0.098,0.066-0.188,0.095-0.283c0.037-0.095,0.069-0.183,0.119-0.298
						c0.043-0.117,0.179-0.176,0.294-0.128c0.12,0.044,0.181,0.179,0.132,0.298l-0.013,0.029c-0.03,0.08-0.066,0.167-0.097,0.254
						c-0.031,0.088-0.061,0.175-0.091,0.266c-0.024,0.083-0.094,0.141-0.175,0.156C280.93,412.887,280.889,412.887,280.85,412.876z
						 M281.863,410.701c-0.103-0.073-0.131-0.216-0.059-0.321c0.04-0.057,0.08-0.111,0.122-0.167
						c0.091-0.115,0.181-0.225,0.271-0.322c0.084-0.099,0.229-0.104,0.323-0.021c0.099,0.085,0.105,0.231,0.019,0.326
						c-0.081,0.091-0.164,0.191-0.248,0.301c-0.038,0.048-0.072,0.099-0.107,0.148c-0.037,0.049-0.088,0.08-0.146,0.091
						C281.98,410.751,281.913,410.739,281.863,410.701z M283.537,408.993c-0.068-0.108-0.035-0.25,0.068-0.315
						c0.175-0.112,0.357-0.219,0.543-0.313c0.112-0.054,0.254-0.011,0.308,0.104c0.059,0.112,0.015,0.25-0.097,0.308
						c-0.176,0.087-0.342,0.186-0.505,0.287c-0.026,0.015-0.049,0.025-0.077,0.033C283.688,409.113,283.588,409.077,283.537,408.993
						z M286.574,408.104c-0.168,0.021-0.338,0.048-0.504,0.084l-0.07,0.015c-0.127,0.021-0.247-0.051-0.277-0.179
						c-0.023-0.123,0.056-0.243,0.18-0.273l0.076-0.013c0.182-0.036,0.356-0.066,0.533-0.091c0.127-0.015,0.241,0.072,0.258,0.199
						c0.015,0.12-0.065,0.228-0.182,0.254C286.588,408.1,286.578,408.1,286.574,408.104z"/>
				</g>
			</g>
			<path fill="#65B069" d="M292.778,394.665c0,0,1.409-1.412,7.997,2.44c7.188,4.206,12.611-5.283,12.611-5.283
				s-3.521-0.271-8.021-2.633C300.863,386.828,295.055,388.917,292.778,394.665"/>
			<path fill="#65B069" d="M293.032,395.624c0,0-1.058-0.432-3.661,3.062c-2.84,3.807-7.801,0.024-7.801,0.024
				s1.791-0.926,3.628-3.166C287.043,393.303,290.556,393.109,293.032,395.624"/>
			<path fill="#734512" d="M309.182,412.073c0.021-0.003,0.046-0.007,0.068-0.014c0.427-0.128,0.668-0.574,0.541-0.999
				c-0.135-0.465-3.523-11.449-16.549-17.181c-0.268-0.116-0.58-0.079-0.813,0.098c-0.231,0.179-0.349,0.469-0.304,0.76
				c0.017,0.113,1.623,11.089-2.602,16.926c-0.262,0.355-0.181,0.86,0.178,1.122c0.359,0.258,0.861,0.179,1.123-0.182
				c3.691-5.097,3.373-13.318,3.063-16.649c11.29,5.575,14.335,15.458,14.363,15.56
				C308.367,411.918,308.778,412.157,309.182,412.073"/>
			<path fill="#E05A5A" d="M290.761,410.979c0,0,3.427-3.024,7.255-0.98c3.829,2.046,5.938,13.821-3.423,15.946
				c-9.422,2.14-12.34-4.966-11.56-11.082C283.813,408.743,289.516,410.436,290.761,410.979"/>
			<path fill="#CF003E" d="M283.033,414.863c0.218-1.729,0.83-2.834,1.625-3.517c-0.049,0.243-0.092,0.49-0.127,0.763
				c-0.772,6.534,2.326,14.147,12.162,11.925c1.111-0.254,2.065-0.643,2.877-1.133c-1.062,1.405-2.67,2.521-4.978,3.044
				C285.171,428.085,282.253,420.979,283.033,414.863"/>
			<g opacity="0.8">
				<g>
					<defs>
						
							<rect id="SVGID_22_" x="295.229" y="410.757" transform="matrix(0.98 -0.1991 0.1991 0.98 -76.5431 67.4931)" width="4.125" height="7.094"/>
					</defs>
					<clipPath id="SVGID_23_">
						<use xlink:href="#SVGID_22_"  overflow="visible"/>
					</clipPath>
					<path clip-path="url(#SVGID_23_)" fill="#FFFFFF" d="M294.565,411.241c0,0,5.534-1.47,5.019,6.219
						C299.584,417.46,298.695,412.35,294.565,411.241"/>
				</g>
			</g>
			<path fill="#E05A5A" d="M308.229,409.734c0,0,3.604-2.819,7.301-0.546c3.701,2.271,5.104,14.149-4.365,15.71
				c-9.535,1.573-12.021-5.691-10.879-11.754C301.429,407.083,307.027,409.116,308.229,409.734"/>
			<path fill="#CF003E" d="M300.285,413.145c0.324-1.707,1-2.774,1.832-3.41c-0.063,0.24-0.121,0.486-0.168,0.755
				c-1.166,6.477,1.471,14.261,11.423,12.626c1.126-0.182,2.101-0.516,2.942-0.959c-1.145,1.344-2.814,2.358-5.15,2.742
				C301.629,426.472,299.143,419.207,300.285,413.145"/>
			<g opacity="0.8">
				<g>
					<defs>
						
							<rect id="SVGID_24_" x="312.702" y="409.762" transform="matrix(0.98 -0.199 0.199 0.98 -75.9678 70.8721)" width="3.872" height="7.299"/>
					</defs>
					<clipPath id="SVGID_25_">
						<use xlink:href="#SVGID_24_"  overflow="visible"/>
					</clipPath>
					<path clip-path="url(#SVGID_25_)" fill="#FFFFFF" d="M312.014,410.221c0,0,5.613-1.137,4.646,6.506
						C316.659,416.727,316.068,411.576,312.014,410.221"/>
				</g>
			</g>
		</g>
	</g>
</g>
</svg>
